<svg width="23" height="16" viewBox="0 0 23 16" fill="none" xmlns="http://www.w3.org/2000/svg">
<path fill-rule="evenodd" clip-rule="evenodd" d="M11.6333 0C7.12204 0 3.2038 2.68938 1.20255 6.64327C0.771026 7.49582 0.771026 8.50418 1.20255 9.35673C3.2038 13.3106 7.12204 16 11.6333 16C16.1446 16 20.0628 13.3106 22.0641 9.35673C22.4956 8.50418 22.4956 7.49582 22.0641 6.64327C20.0628 2.68938 16.1446 0 11.6333 0ZM11.6334 13.3333C8.8677 13.3333 6.62306 10.944 6.62306 8C6.62306 5.056 8.8677 2.66667 11.6334 2.66667C14.3991 2.66667 16.6438 5.056 16.6438 8C16.6438 10.944 14.3991 13.3333 11.6334 13.3333ZM11.6334 4.8C9.96994 4.8 8.62716 6.22933 8.62716 8C8.62716 9.77067 9.96994 11.2 11.6334 11.2C13.2968 11.2 14.6396 9.77067 14.6396 8C14.6396 6.22933 13.2968 4.8 11.6334 4.8Z" fill="black" fill-opacity="0.6"/>
</svg>
